<?xml version="1.0" encoding="utf-8"?>
<!-- Generator: Adobe Illustrator 26.0.2, SVG Export Plug-In . SVG Version: 6.00 Build 0)  -->
<svg version="1.1" id="Layer_1" xmlns="http://www.w3.org/2000/svg" xmlns:xlink="http://www.w3.org/1999/xlink" x="0px" y="0px"
	 viewBox="0 0 24 30" style="enable-background:new 0 0 24 30;" xml:space="preserve">
<style type="text/css">
	.st0{fill-rule:evenodd;clip-rule:evenodd;fill:#FFFFFF;}
</style>
<path class="st0" d="M8.8,11.8h8.9c0.9,0,1.7,0.3,2.3,0.9c0.6,0.6,0.9,1.4,0.9,2.3v8.8c0,0.8-0.3,1.7-0.9,2.3
	c-0.6,0.6-1.4,0.9-2.3,0.9H6.3c-0.9,0-1.7-0.3-2.3-0.9c-0.6-0.6-0.9-1.4-0.9-2.3V15c0-0.8,0.3-1.7,0.9-2.3c0.6-0.6,1.4-0.9,2.3-0.9
	h0.8v-4c0-1.3,0.5-2.5,1.4-3.4C9.5,3.5,10.7,3,12,3c1.3,0,2.5,0.5,3.4,1.4c0.9,0.9,1.4,2.1,1.4,3.4c0,0.2-0.1,0.4-0.2,0.6
	c-0.2,0.2-0.4,0.2-0.6,0.2c-0.2,0-0.4-0.1-0.6-0.2c-0.2-0.2-0.2-0.4-0.2-0.6c0-0.8-0.3-1.7-0.9-2.3c-0.6-0.6-1.4-0.9-2.3-0.9
	c-0.9,0-1.7,0.3-2.3,0.9C9.1,6.1,8.8,7,8.8,7.8V11.8z M13.3,17.8c0,0.5-0.3,0.9-0.7,1.2l0.4,2.5H11l0.4-2.6
	c-0.4-0.2-0.7-0.6-0.7-1.1c0-0.7,0.6-1.3,1.3-1.3C12.7,16.5,13.3,17.1,13.3,17.8z"/>
</svg>
