<?xml version="1.0" encoding="utf-8"?>
<!-- Generator: Adobe Illustrator 16.0.0, SVG Export Plug-In . SVG Version: 6.00 Build 0)  -->
<!DOCTYPE svg PUBLIC "-//W3C//DTD SVG 1.1//EN" "http://www.w3.org/Graphics/SVG/1.1/DTD/svg11.dtd">
<svg version="1.1" id="Capa_1" xmlns="http://www.w3.org/2000/svg" xmlns:xlink="http://www.w3.org/1999/xlink" x="0px" y="0px"
	 width="512px" height="512px" viewBox="0 0 512 512" enable-background="new 0 0 512 512" xml:space="preserve">
<g id="Shape_24">
	<g>
		<path fill="#A0AFC9" d="M148.761,292.248c13.703,0,27.401,0,41.102-1.962V145.444c-13.7-1.959-27.398-1.959-41.102-1.959
			C66.549,143.484,0,172.842,0,210.036v13.704C0,260.929,66.549,292.248,148.761,292.248z M148.761,366.626
			c13.703,0,27.401,0,41.102-1.962v-43.059c-13.7,1.951-27.398,1.951-41.102,1.951c-72.427,0-131.15-23.478-144.848-52.84
			C1.957,274.629,0,280.498,0,284.411v13.701C0,337.263,66.549,366.626,148.761,366.626z M189.862,397.939
			c-13.7,1.967-27.398,1.967-41.102,1.967c-72.427,0-131.15-23.498-144.848-52.861C1.957,350.963,0,356.838,0,360.751v13.7
			c0,37.194,66.549,66.552,148.761,66.552c15.657,0,31.314-1.956,46.979-3.913c-3.918-7.825-5.877-15.662-5.877-23.488V397.939
			L189.862,397.939z M364.073,28C281.864,28,215.31,57.36,215.31,94.549v13.704c0,37.191,66.555,66.552,148.764,66.552
			c82.203,0,148.755-29.36,148.755-66.552V94.549C512.828,57.36,446.276,28,364.073,28z M364.073,210.036
			c-72.416,0-131.147-23.488-144.848-52.851c-1.957,3.913-3.916,9.787-3.916,13.7v13.703c0,37.191,66.555,66.547,148.764,66.547
			c82.203,0,148.755-29.355,148.755-66.547v-13.703c0-3.913-1.951-9.788-3.907-13.7
			C495.215,186.548,434.538,210.036,364.073,210.036z M364.073,286.373c-72.416,0-131.147-23.488-144.848-52.849
			c-1.957,3.913-3.916,9.785-3.916,13.701v13.704c0,37.184,66.555,66.541,148.764,66.541c82.203,0,148.755-29.357,148.755-66.541
			v-13.704c0-3.916-1.951-9.788-3.907-13.701C495.215,262.885,434.538,286.373,364.073,286.373z M364.073,364.664
			c-72.416,0-131.147-23.483-144.848-52.841c-1.957,3.913-3.916,9.782-3.916,13.695v13.706c0,37.184,66.555,66.546,148.764,66.546
			c82.203,0,148.755-29.362,148.755-66.546v-13.706c0-3.913-1.951-9.782-3.907-13.695
			C495.215,341.181,434.538,364.664,364.073,364.664z M364.073,441.003c-72.416,0-131.147-23.488-144.848-52.846
			c-1.957,3.913-3.916,9.782-3.916,13.7v13.701c0,37.194,66.555,66.552,148.764,66.552c82.203,0,148.755-29.357,148.755-66.552
			v-13.701c0-3.918-1.951-9.787-3.907-13.7C495.215,417.515,434.538,441.003,364.073,441.003z"/>
	</g>
</g>
</svg>
