<?xml version="1.0" encoding="utf-8"?>
<!-- Generator: Adobe Illustrator 16.0.0, SVG Export Plug-In . SVG Version: 6.00 Build 0)  -->
<!DOCTYPE svg PUBLIC "-//W3C//DTD SVG 1.1//EN" "http://www.w3.org/Graphics/SVG/1.1/DTD/svg11.dtd">
<svg version="1.1" id="Layer_1" xmlns="http://www.w3.org/2000/svg" xmlns:xlink="http://www.w3.org/1999/xlink" x="0px" y="0px"
	 width="96px" height="96px" viewBox="0 0 96 96" enable-background="new 0 0 96 96" xml:space="preserve">
<path fill="#A0AFC9" d="M31.457,62.445c1.168-1.027,1.283-2.808,0.256-3.978l-0.155-0.178c-0.493-0.56-1.189-0.899-1.934-0.944
	c-0.062,0-0.125,0-0.188,0c-0.684-0.002-1.344,0.248-1.856,0.7l-3.778,3.317l-3.441,3.02c-1.165,1.029-1.279,2.807-0.255,3.977
	l0.158,0.181c1.029,1.168,2.809,1.282,3.979,0.257l2.645-2.321L31.457,62.445z"/>
<path fill="#A0AFC9" d="M22.385,70.156c-0.079,0-0.155,0-0.233-0.007c-0.925-0.058-1.788-0.481-2.398-1.179l-0.16-0.183
	c-1.266-1.45-1.125-3.649,0.317-4.925l7.222-6.343c0.697-0.61,1.607-0.919,2.531-0.86c0.925,0.057,1.788,0.481,2.398,1.179
	l0.221,0.258c1.208,1.454,1.039,3.604-0.38,4.851l-7.219,6.343C24.05,69.851,23.232,70.158,22.385,70.156z M29.435,58.012
	c-0.521,0.003-1.022,0.195-1.412,0.54l-7.219,6.342c-0.886,0.784-0.972,2.136-0.193,3.025l0.159,0.183
	c0.783,0.887,2.136,0.973,3.025,0.192l7.218-6.343c0.888-0.781,0.975-2.135,0.194-3.023l-0.158-0.182
	c-0.374-0.428-0.903-0.688-1.469-0.723L29.435,58.012z"/>
<path fill="#A0AFC9" d="M41.59,69.495c-0.684-0.001-1.345,0.247-1.858,0.699l-3.726,3.271c-1.171,1.027-1.287,2.81-0.26,3.98
	c1.027,1.17,2.809,1.287,3.98,0.26l3.726-3.271c1.171-1.025,1.288-2.807,0.262-3.978C43.178,69.844,42.403,69.494,41.59,69.495z"/>
<path fill="#A0AFC9" d="M37.87,79.078c-1.93,0.004-3.497-1.558-3.5-3.487c-0.001-1.009,0.433-1.969,1.191-2.634l3.727-3.271
	c1.47-1.216,3.633-1.075,4.932,0.321c1.273,1.451,1.13,3.66-0.321,4.934l-3.726,3.271C39.536,78.771,38.717,79.08,37.87,79.078
	L37.87,79.078z M41.591,70.173c-0.521-0.005-1.025,0.182-1.418,0.523l-3.727,3.271c-0.891,0.783-0.979,2.14-0.196,3.03
	c0.782,0.892,2.139,0.979,3.03,0.196l3.727-3.268c0.891-0.779,0.98-2.135,0.199-3.025c-0.408-0.465-0.997-0.731-1.616-0.73
	L41.591,70.173z"/>
<path fill="#A0AFC9" d="M8.346,17.789L0.771,50.838l6.056,3.404l15.672-25.493L8.346,17.789z"/>
<path fill="#A0AFC9" d="M7.062,55.146L0,51.18l7.922-34.571l15.467,11.976L7.062,55.146z M1.541,50.497l5.051,2.833l15.016-24.423
	L8.767,18.97L1.541,50.497z"/>
<path fill="#A0AFC9" d="M22.693,58.608c1.17-1.028,1.286-2.81,0.259-3.98l-0.048-0.056c-0.492-0.563-1.188-0.906-1.935-0.953
	c-0.062,0-0.124,0-0.188,0c-0.684,0-1.344,0.248-1.857,0.701l-4.524,3.961c-1.17,1.029-1.286,2.811-0.259,3.981
	c1.007,1.198,2.794,1.353,3.993,0.346c0.012-0.011,0.025-0.021,0.037-0.032l0.342-0.301l3.444-3.022L22.693,58.608z"/>
<path fill="#A0AFC9" d="M16.34,63.949c-0.086,0-0.174,0-0.263-0.01c-0.942-0.072-1.818-0.514-2.437-1.229
	c-1.273-1.451-1.13-3.659,0.32-4.933l4.519-3.966c1.451-1.271,3.657-1.129,4.931,0.32c0.642,0.704,0.97,1.639,0.91,2.589
	c-0.057,0.925-0.482,1.79-1.181,2.399l-4.518,3.966C17.991,63.644,17.18,63.95,16.34,63.949z M20.781,54.293
	c-0.521,0.002-1.022,0.193-1.412,0.539l-4.519,3.967c-0.891,0.781-0.979,2.137-0.197,3.027l0,0c0.386,0.449,0.933,0.728,1.522,0.775
	c0.567,0.044,1.128-0.145,1.553-0.521l4.518-3.966c0.89-0.782,0.978-2.138,0.197-3.028c-0.379-0.457-0.928-0.738-1.521-0.781
	L20.781,54.293z"/>
<path fill="#A0AFC9" d="M38.455,66.504c0.051-0.747-0.199-1.483-0.695-2.045l-0.041-0.046c-0.492-0.56-1.187-0.899-1.931-0.944
	c-0.063,0-0.126,0-0.188,0c-0.684-0.001-1.344,0.248-1.856,0.701l-0.443,0.388L28.73,68.57l-1.214,1.061
	c-1.173,1.063-1.263,2.873-0.202,4.045c0.495,0.547,1.183,0.883,1.918,0.936c0.747,0.051,1.484-0.199,2.044-0.695l6.225-5.464
	C38.068,67.957,38.412,67.255,38.455,66.504L38.455,66.504z"/>
<path fill="#A0AFC9" d="M29.419,75.284c-0.077,0-0.152,0-0.229-0.007c-1.944-0.12-3.422-1.793-3.301-3.737
	c0.058-0.933,0.483-1.804,1.183-2.423l6.219-5.471c0.698-0.607,1.607-0.917,2.532-0.861c0.923,0.057,1.786,0.48,2.395,1.178
	c0.64,0.703,0.968,1.637,0.907,2.585c-0.058,0.923-0.482,1.784-1.178,2.394l-6.225,5.464C31.087,74.971,30.269,75.283,29.419,75.284
	z M33.738,65.055l-5.777,5.07c-0.891,0.781-0.981,2.137-0.203,3.029c0.379,0.451,0.925,0.729,1.513,0.771
	c0.57,0.039,1.132-0.151,1.56-0.531l6.225-5.463c0.89-0.781,0.979-2.136,0.199-3.026c0-0.001-0.001-0.001-0.002-0.003
	c-0.378-0.453-0.925-0.731-1.514-0.771h-0.143c-0.521,0-1.023,0.192-1.411,0.54L33.738,65.055z"/>
<path fill="#A0AFC9" d="M75.751,57.491l-21.96-17.895c-8.41,4.465-14.364,2.167-17.212,0.35c-1.484-0.968-1.902-2.957-0.934-4.441
	c0.301-0.461,0.715-0.837,1.204-1.092l7.319-3.887c-0.189-0.028-0.374-0.053-0.54-0.069c-6.605,1.043-13.275,1.618-19.961,1.719
	l-12.795,20.81l2.853,2.174l3.353-2.943c2.328-2.045,5.873-1.814,7.917,0.514c0,0.001,0,0.001,0,0.002l0.049,0.055
	c0.671,0.77,1.117,1.709,1.29,2.715c1.017-0.693,2.237-1.025,3.465-0.944c1.485,0.093,2.873,0.776,3.851,1.897l0.158,0.181
	c0.984,1.115,1.481,2.577,1.38,4.062v0.008c0.257-0.025,0.515-0.034,0.773-0.025c1.485,0.093,2.872,0.775,3.851,1.897l-1.008,0.966
	l1.048-0.92c0.985,1.115,1.483,2.579,1.383,4.064c0,0.019-0.008,0.036-0.009,0.055c3.072-0.219,5.74,2.096,5.959,5.168
	c0.018,0.256,0.019,0.514,0.001,0.77c-0.069,0.965-0.389,1.896-0.929,2.699l6.017,3.472c1.318,0.748,2.994,0.304,3.77-0.999
	c0.736-1.243,0.377-2.844-0.818-3.655l-9.581-6.639c-0.008,0-0.012-0.015-0.019-0.021l-0.645-0.446
	c-0.626-0.45-0.769-1.321-0.319-1.947c0.438-0.61,1.282-0.765,1.907-0.347l13.513,9.36c1.246,0.864,2.957,0.554,3.821-0.692
	c0-0.001,0.001-0.002,0.002-0.002c0.848-1.24,0.547-2.93-0.676-3.802l-13.446-9.538c-0.009,0-0.011-0.014-0.019-0.02
	c-0.629-0.447-0.775-1.318-0.328-1.947s1.318-0.775,1.947-0.328L66.46,68.523c1.318,0.932,3.143,0.617,4.073-0.701
	c0.901-1.277,0.639-3.036-0.595-3.994L53.717,52.139c-0.641-0.428-0.813-1.293-0.386-1.935c0.428-0.641,1.294-0.813,1.935-0.386
	c0.024,0.016,0.048,0.032,0.071,0.051l1.108,0.79h0.016L71.494,61.49c0.028,0.021,0.049,0.047,0.076,0.066l0.248,0.179
	c0.047,0.032,0.092,0.067,0.135,0.106l0.27,0.186c1.257,0.899,2.998,0.659,3.963-0.549c0.578-0.729,0.765-1.693,0.502-2.586
	C76.527,58.34,76.199,57.852,75.751,57.491z"/>
<path fill="#A0AFC9" d="M53.643,79.894c-0.597,0-1.183-0.157-1.699-0.454L45.3,75.607l0.405-0.594
	c1.5-2.262,0.881-5.312-1.381-6.811c-0.718-0.477-1.548-0.755-2.407-0.809c-0.167-0.009-0.335-0.004-0.502,0.014l-0.906,0.057
	l0.053-0.769c0.085-1.091-0.195-2.178-0.796-3.091l-0.506,0.445l-0.912-0.994l0.513-0.49c-0.816-0.72-1.848-1.146-2.934-1.215
	c-0.197-0.006-0.394,0-0.59,0.02l-0.725,0.054l-0.09-0.799v-0.028c0.071-1.287-0.365-2.549-1.214-3.518l-0.159-0.183
	c-1.625-1.864-4.386-2.222-6.432-0.831l-0.859,0.577l-0.181-1.021c-0.458-2.697-3.017-4.512-5.714-4.053
	c-0.902,0.153-1.744,0.553-2.433,1.156l-3.769,3.309l-3.785-2.881L23.283,31.51l0.363-0.011c6.65-0.102,13.285-0.672,19.854-1.707
	l0.094-0.019l0.096,0.008c0.178,0.016,0.375,0.043,0.579,0.073l2.024,0.304l-9.127,4.847c-1.244,0.643-1.73,2.171-1.088,3.415
	c0.202,0.39,0.5,0.72,0.868,0.96c2.679,1.709,8.395,3.938,16.529-0.379l0.396-0.21l22.306,18.175
	c0.554,0.449,0.955,1.059,1.15,1.744c0.326,1.101,0.097,2.291-0.615,3.19c-1.191,1.489-3.341,1.786-4.891,0.675l-0.758-0.565
	L54.945,50.404c-0.322-0.231-0.771-0.158-1.002,0.164c0,0.001-0.001,0.002-0.002,0.003c-0.231,0.323-0.157,0.772,0.165,1.004
	c0.001,0.001,0.002,0.001,0.003,0.001l16.223,11.698c1.574,1.214,1.864,3.474,0.65,5.046c-1.175,1.522-3.34,1.852-4.914,0.748
	l-15.079-10.69c-0.157-0.111-0.351-0.155-0.54-0.123c-0.393,0.066-0.656,0.438-0.59,0.831c0.031,0.188,0.137,0.356,0.293,0.467
	l13.47,9.561c1.522,1.088,1.894,3.193,0.835,4.735c-1.074,1.554-3.205,1.943-4.759,0.869c-0.001-0.001-0.001-0.001-0.001-0.001
	l-13.511-9.362c-0.319-0.237-0.771-0.171-1.008,0.149c-0.237,0.318-0.17,0.77,0.149,1.008c0.013,0.01,0.026,0.019,0.04,0.027
	l10.248,7.105c1.559,1.067,1.957,3.195,0.89,4.754c-0.46,0.671-1.144,1.156-1.929,1.369C54.271,79.851,53.958,79.894,53.643,79.894z
	 M47.189,75.137l5.429,3.133c1.013,0.549,2.276,0.172,2.823-0.84c0.495-0.914,0.241-2.051-0.594-2.668l-7.658-5.314
	c0.519,1.01,0.752,2.143,0.675,3.275C47.81,73.566,47.58,74.388,47.189,75.137z M45.784,63.879c0.419,0,0.829,0.127,1.174,0.365
	l13.51,9.361c0.94,0.65,2.231,0.416,2.882-0.525c0.641-0.934,0.415-2.209-0.507-2.867L49.3,60.598
	c-0.896-0.71-1.047-2.012-0.337-2.908c0.68-0.858,1.91-1.039,2.809-0.412L66.85,67.973c1.02,0.711,2.42,0.462,3.131-0.557
	c0.682-0.977,0.482-2.317-0.454-3.054L53.322,52.686c-0.93-0.664-1.145-1.957-0.479-2.887c0.664-0.93,1.957-1.145,2.887-0.479
	l1.125,0.798l15.356,11.076c0.069,0.051,0.135,0.104,0.196,0.162L72.6,61.48c0.961,0.696,2.299,0.518,3.045-0.405
	c0.443-0.558,0.587-1.297,0.387-1.98c-0.118-0.424-0.363-0.801-0.703-1.079L53.709,40.4c-8.527,4.359-14.606,1.959-17.493,0.115
	c-1.799-1.167-2.312-3.572-1.144-5.372c0.366-0.563,0.871-1.022,1.467-1.332l4.137-2.197c-4.208,0.571-9.952,0.996-16.622,1.214
	l-12.28,19.984l1.931,1.47l2.94-2.58c2.607-2.29,6.577-2.032,8.867,0.575c0,0.001,0.001,0.002,0.002,0.002
	c0.564,0.639,0.994,1.383,1.266,2.19c0.955-0.464,2.016-0.671,3.075-0.598c1.666,0.103,3.221,0.869,4.318,2.126l0.16,0.183
	c0.933,1.058,1.479,2.4,1.55,3.81h0.135c1.453,0.095,2.828,0.695,3.885,1.695l0.022-0.019l0.365,0.419l0.04,0.043l0.425,0.484
	l-0.019,0.02c0.724,0.992,1.138,2.178,1.189,3.406h0.082c0.6,0.039,1.19,0.164,1.754,0.37c-0.259-1.111,0.431-2.222,1.542-2.481
	c0.158-0.037,0.32-0.055,0.482-0.055L45.784,63.879z"/>
<path fill="#A0AFC9" d="M87.652,17.287l-14.149,10.96l13.089,21.289c0.086,0.045,0.167,0.099,0.242,0.161
	c0.225,0.23,0.359,0.533,0.383,0.855l1.961,3.188l6.051-3.404L87.652,17.287z"/>
<path fill="#A0AFC9" d="M88.938,54.646l-2.382-3.875l-0.015-0.156c-0.009-0.166-0.076-0.322-0.189-0.443l-0.259-0.154l-0.079-0.135
	L72.607,28.083l15.469-11.977L96,50.678L88.938,54.646z M87.857,50.32l1.547,2.514L94.455,50l-7.224-31.534l-12.839,9.942
	L87.076,49.04c0.084,0.05,0.161,0.109,0.23,0.178c0.297,0.3,0.49,0.687,0.555,1.103H87.857z"/>
<path fill="#A0AFC9" d="M69.869,32.026c-2.745,1.13-5.803,1.241-8.623,0.313l-7.428-2.412c-1.027-0.326-2.141-0.229-3.096,0.27
	l-2.518,1.337c-0.027,0.013-0.05,0.03-0.079,0.042l-9.977,5.301c-0.142,0.068-0.235,0.209-0.24,0.367
	c-0.011,0.142,0.058,0.279,0.179,0.354c2.935,1.873,7.962,3.239,15.158-0.891c0.501-0.287,1.127-0.236,1.576,0.128l22.68,18.487
	c0.316,0.26,0.602,0.555,0.851,0.879l5.608-5.613L72.01,31.151L69.869,32.026z"/>
<path fill="#A0AFC9" d="M78.295,57.211l-0.47-0.594c-0.218-0.285-0.466-0.543-0.742-0.77L54.396,37.366
	c-0.23-0.185-0.551-0.211-0.809-0.066c-7.491,4.302-12.758,2.85-15.857,0.875c-0.326-0.206-0.514-0.573-0.49-0.958
	c0.016-0.396,0.246-0.753,0.6-0.931L50.41,29.61c1.115-0.584,2.419-0.699,3.619-0.318l7.426,2.407
	c2.668,0.879,5.561,0.774,8.157-0.294l2.676-1.096l12.53,20.375L78.295,57.211z M53.937,35.854c0.478-0.001,0.939,0.162,1.31,0.461
	l22.683,18.486c0.159,0.129,0.312,0.268,0.454,0.415l4.724-4.724L71.734,31.991l-1.607,0.659c-2.895,1.191-6.119,1.308-9.092,0.329
	l-7.422-2.41c-0.854-0.268-1.78-0.186-2.574,0.229L38.85,37.275c2.824,1.641,7.47,2.641,14.064-1.146
	C53.227,35.95,53.578,35.855,53.937,35.854z"/>
</svg>
