<?xml version="1.0" encoding="utf-8"?>
<!-- Generator: Adobe Illustrator 16.0.0, SVG Export Plug-In . SVG Version: 6.00 Build 0)  -->
<!DOCTYPE svg PUBLIC "-//W3C//DTD SVG 1.1//EN" "http://www.w3.org/Graphics/SVG/1.1/DTD/svg11.dtd">
<svg version="1.1" id="Layer_1" xmlns="http://www.w3.org/2000/svg" xmlns:xlink="http://www.w3.org/1999/xlink" x="0px" y="0px"
	 width="20px" height="20px" viewBox="0 0 20 20" enable-background="new 0 0 20 20" xml:space="preserve">
<title>编组 18</title>
<g id="跟单">
	<g id="跟随交易员-分别设置备份" transform="translate(-549.000000, -294.000000)">
		<g id="编组-18" transform="translate(549.000000, 294.000000)">
			<path id="矩形备份-5" fill="#DBAC37" d="M20,0v18c0,1.104-0.896,2-2,2H0l0,0L20,0z"/>
			<g id="单独对号备份-3" transform="translate(10.000000, 10.000000)">
				<rect id="矩形" x="1" fill-opacity="0" width="8" height="8"/>
				<path id="路径" fill="#FFFFFF" d="M3.3,6.561c-0.104,0.105-0.272,0.105-0.376,0L2.84,6.477l0,0l-0.089-0.09L2.359,5.992
					c-0.001-0.002,0-0.004-0.002-0.006L0.565,4.164c-0.104-0.104-0.104-0.274,0-0.379l0.563-0.568c0.104-0.105,0.273-0.105,0.377,0
					l1.607,1.635l3.382-3.412c0.103-0.105,0.272-0.105,0.376,0l0.563,0.568c0.104,0.105,0.104,0.275,0,0.379L3.3,6.561L3.3,6.561z"
					/>
			</g>
		</g>
	</g>
</g>
</svg>
